<svg xmlns="http://www.w3.org/2000/svg" xmlns:xlink="http://www.w3.org/1999/xlink" version="1.1" viewBox="0 367.36 960 173.64"><path d="M0 372L22.8 375.5C45.7 379 91.3 386 137 387.7C182.7 389.3 228.3 385.7 274 381C319.7 376.3 365.3 370.7 411.2 368.5C457 366.3 503 367.7 548.8 369.2C594.7 370.7 640.3 372.3 686 376.2C731.7 380 777.3 386 823 385.2C868.7 384.3 914.3 376.7 937.2 372.8L960 369L960 541L937.2 541C914.3 541 868.7 541 823 541C777.3 541 731.7 541 686 541C640.3 541 594.7 541 548.8 541C503 541 457 541 411.2 541C365.3 541 319.7 541 274 541C228.3 541 182.7 541 137 541C91.3 541 45.7 541 22.8 541L0 541Z" fill="#ffffff" stroke-linecap="round" stroke-linejoin="miter"></path></svg>